<?xml version="1.0" encoding="utf-8" standalone="yes"?>
<!DOCTYPE svg PUBLIC "-//W3C//DTD SVG 1.1//EN" "http://www.w3.org/Graphics/SVG/1.1/DTD/svg11.dtd">
<svg width="758" height="566" viewBox="0 0 758 566" style="fill:none;stroke:none;fill-rule:evenodd;clip-rule:evenodd;stroke-linecap:round;stroke-linejoin:round;stroke-miterlimit:1.5;" version="1.1" xmlns="http://www.w3.org/2000/svg" xmlns:xlink="http://www.w3.org/1999/xlink"><style class="text-font-style fontImports" data-font-family="Roboto">@import url('https://fonts.googleapis.com/css2?family=Roboto:wght@400;700&amp;display=block');</style><g id="items" style="isolation: isolate"><g id="blend" style="mix-blend-mode: normal"><g id="g-root-3.line_sy_qqxmcvb5nojp-fill" data-item-order="-92654" transform="translate(315, 406.3828125)"></g><g id="g-root-3.line_1_sy_qqxmcvb5nojq-fill" data-item-order="-92650" transform="translate(339, 411.921875)"></g><g id="g-root-3.line_2_sy_qqxmcvb5nojr-fill" data-item-order="-92646" transform="translate(363, 417.4609375)"></g><g id="g-root-3.line_3_sy_mbqlbjb5nm68-fill" data-item-order="-92642" transform="translate(459, 406.392578125)"></g><g id="g-root-3.line_4_sy_mbqlbjb5nm69-fill" data-item-order="-92638" transform="translate(435, 411.927734375)"></g><g id="g-root-3.line_5_sy_mbqlbjb5nm6a-fill" data-item-order="-92634" transform="translate(411, 417.462890625)"></g><g id="g-root-3.line_6_sy_mbqlbjb5nm6b-fill" data-item-order="-92630" transform="translate(387, 422.998046875)"></g><g id="g-root-3.cu_sy_dg3l2nb5nmz0-fill" data-item-order="-92629" transform="translate(231, 345)"><g id="3.cu_sy_dg3l2nb5nmz0-fill" stroke="none" fill="#a6da37"><g><path d="M 10 52L 10 40L 140 10L 166 16L 192 10L 322 40L 322 52L 166 88L 10 52Z"></path></g></g></g><g id="g-root-2.line_sy_dg3l2nb5nmz1-fill" data-item-order="-92622" transform="translate(291, 328.84375)"></g><g id="g-root-2.line_1_sy_dg3l2nb5nmz2-fill" data-item-order="-92618" transform="translate(315, 334.3828125)"></g><g id="g-root-2.line_2_sy_90a2y7b5nnrb-fill" data-item-order="-92614" transform="translate(339, 339.921875)"></g><g id="g-root-2.line_3_sy_90a2y7b5nnrc-fill" data-item-order="-92610" transform="translate(363, 345.4609375)"></g><g id="g-root-2.line_4_sy_90a2y7b5nnrd-fill" data-item-order="-92606" transform="translate(483, 328.857421875)"></g><g id="g-root-2.line_5_sy_90a2y7b5nnre-fill" data-item-order="-92602" transform="translate(459, 334.392578125)"></g><g id="g-root-2.line_6_sy_90a2y7b5nnrf-fill" data-item-order="-92598" transform="translate(435, 339.927734375)"></g><g id="g-root-2.line_7_sy_4kgktrb5nojo-fill" data-item-order="-92594" transform="translate(411, 345.462890625)"></g><g id="g-root-2.line_8_sy_4kgktrb5nojp-fill" data-item-order="-92590" transform="translate(387, 350.998046875)"></g><g id="g-root-2.cu_sy_4kgktrb5nojq-fill" data-item-order="-92589" transform="translate(231, 273)"><g id="2.cu_sy_4kgktrb5nojq-fill" stroke="none" fill="#43dd93"><g><path d="M 10 52L 10 40L 140 10L 166 16L 192 10L 322 40L 322 52L 166 88L 10 52Z"></path></g></g></g><g id="g-root-1.line_sy_4kgktrb5nojr-fill" data-item-order="-92582" transform="translate(267, 251.3046875)"></g><g id="g-root-1.line_1_sy_59jsfb5nm68-fill" data-item-order="-92578" transform="translate(291, 256.84375)"></g><g id="g-root-1.line_2_sy_59jsfb5nm69-fill" data-item-order="-92574" transform="translate(315, 262.3828125)"></g><g id="g-root-1.line_3_sy_59jsfb5nm6a-fill" data-item-order="-92570" transform="translate(339, 267.921875)"></g><g id="g-root-1.line_4_sy_59jsfb5nm6b-fill" data-item-order="-92566" transform="translate(363, 273.4609375)"></g><g id="g-root-1.line_5_sy_1qaqlinb5nmrw-fill" data-item-order="-92562" transform="translate(507, 251.322265625)"></g><g id="g-root-1.line_6_sy_1qaqlinb5nmrx-fill" data-item-order="-92558" transform="translate(483, 256.857421875)"></g><g id="g-root-1.line_7_sy_1qaqlinb5nmry-fill" data-item-order="-92554" transform="translate(459, 262.392578125)"></g><g id="g-root-1.line_8_sy_1qaqlinb5nmrz-fill" data-item-order="-92550" transform="translate(435, 267.927734375)"></g><g id="g-root-1.line_9_sy_1lux3e7b5nnk8-fill" data-item-order="-92546" transform="translate(411, 273.462890625)"></g><g id="g-root-1.line_10_sy_1lux3e7b5nnk9-fill" data-item-order="-92542" transform="translate(387, 278.998046875)"></g><g id="g-root-1.cu_sy_1lux3e7b5nnka-fill" data-item-order="-92541" transform="translate(231, 195)"><g id="1.cu_sy_1lux3e7b5nnka-fill" stroke="none" fill="#1ac3fb"><g><path d="M 10 58L 10 46L 166 10L 322 46L 322 58L 166 94L 10 58Z"></path></g></g></g><g id="g-root-0.line_sy_1hf3l9rb5nocj-fill" data-item-order="-92534" transform="translate(243, 171.00018310546875)"></g><g id="g-root-0.line_1_sy_1hf3l9rb5nock-fill" data-item-order="-92530" transform="translate(459, 183)"></g><g id="g-root-0.line_2_sy_1hf3l9rb5nocl-fill" data-item-order="-92526" transform="translate(411, 183)"></g><g id="g-root-0.line_3_sy_18k323zb5nlzi-fill" data-item-order="-92522" transform="translate(315, 183)"></g><g id="g-root-0.line_4_sy_18k323zb5nlzj-fill" data-item-order="-92518" transform="translate(435, 171)"></g><g id="g-root-0.line_5_sy_1czwk8fb5nlz4-fill" data-item-order="-92514" transform="translate(267, 183)"></g><g id="g-root-0.line_6_sy_1czwk8fb5nlz5-fill" data-item-order="-92510" transform="translate(531, 171)"></g><g id="g-root-0.line_7_sy_1449jzjb5nmru-fill" data-item-order="-92506" transform="translate(483, 171)"></g><g id="g-root-0.line_8_sy_1449jzjb5nmrv-fill" data-item-order="-92502" transform="translate(291, 171)"></g><g id="g-root-0.line_9_sy_1449jzjb5nmrw-fill" data-item-order="-92498" transform="translate(363, 183)"></g><g id="g-root-0.line_10_sy_1449jzjb5nmrx-fill" data-item-order="-92494" transform="translate(339, 171)"></g><g id="g-root-0.line_11_sy_zog1v3b5nnk6-fill" data-item-order="-92490" transform="translate(507, 183)"></g><g id="g-root-0.line_12_sy_zog1v3b5nnk7-fill" data-item-order="-92486" transform="translate(387, 171)"></g><g id="g-root-tx_simplify_925i7jb5nnkd-fill" data-item-order="0" transform="translate(213, 39)"><g id="tx_simplify_925i7jb5nnkd-fill" stroke="none" fill="#f4f4f4"><g><text style="font: bold 20px Roboto, sans-serif; white-space: pre;" font-weight="bold" font-size="20px" font-family="Roboto, sans-serif"><tspan x="16.14" y="33.5" dominant-baseline="ideographic">Simplifying AI Access for Businesses</tspan></text></g></g></g><g id="g-root-tx_aicomple_hxsigfb5nmrn-fill" data-item-order="0" transform="translate(321, 135)"><g id="tx_aicomple_hxsigfb5nmrn-fill" stroke="none" fill="#f4f4f4"><g><text style="font: 20px Roboto, sans-serif; white-space: pre;" font-size="20px" font-family="Roboto, sans-serif"><tspan x="14.55" y="33.5" dominant-baseline="ideographic">AI Complexity</tspan></text></g></g></g><g id="g-root-tx_simplifi_hxsigfb5nmrm-fill" data-item-order="0" transform="translate(15, 225)"><g id="tx_simplifi_hxsigfb5nmrm-fill" stroke="none" fill="#e5f8ff"><g><text style="font: 20px Roboto, sans-serif; white-space: pre;" font-size="20px" font-family="Roboto, sans-serif"><tspan x="23.48" y="33.5" dominant-baseline="ideographic">Simplified Solutions</tspan></text></g></g></g><g id="g-root-tx_integrat_mdm0kvb5nlzd-fill" data-item-order="0" transform="translate(567, 297)"><g id="tx_integrat_mdm0kvb5nlzd-fill" stroke="none" fill="#dffff0"><g><text style="font: 20px Roboto, sans-serif; white-space: pre;" font-size="20px" font-family="Roboto, sans-serif"><tspan x="12" y="33.5" dominant-baseline="ideographic">Integration Ease</tspan></text></g></g></g><g id="g-root-tx_accessib_v8mjqnb5nocg-fill" data-item-order="0" transform="translate(75, 369)"><g id="tx_accessib_v8mjqnb5nocg-fill" stroke="none" fill="#f2ffd7"><g><text style="font: 20px Roboto, sans-serif; white-space: pre;" font-size="20px" font-family="Roboto, sans-serif"><tspan x="19.75" y="33.5" dominant-baseline="ideographic">Accessible AI</tspan></text></g></g></g><g id="g-root-tx_empowere_hxsigfb5nmro-fill" data-item-order="0" transform="translate(303, 483)"><g id="tx_empowere_hxsigfb5nmro-fill" stroke="none" fill="#f4f4f4"><g><text style="font: 20px Roboto, sans-serif; white-space: pre;" font-size="20px" font-family="Roboto, sans-serif"><tspan x="13.19" y="33.5" dominant-baseline="ideographic">Empowered Users</tspan></text></g></g></g><g id="g-root-3.line_sy_qqxmcvb5nojp-stroke" data-item-order="-92654" transform="translate(315, 406.3828125)"><g id="3.line_sy_qqxmcvb5nojp-stroke" fill="none" stroke-linecap="round" stroke-linejoin="round" stroke-miterlimit="4" stroke="#f4f4f4" stroke-width="2"><g><path d="M 10 9.997187L 10 52.997187"></path><path d="M 3.5 47.017187L 10 53.517187L 16.5 47.017187" stroke-dasharray="none"></path></g></g></g><g id="g-root-3.line_1_sy_qqxmcvb5nojq-stroke" data-item-order="-92650" transform="translate(339, 411.921875)"><g id="3.line_1_sy_qqxmcvb5nojq-stroke" fill="none" stroke-linecap="round" stroke-linejoin="round" stroke-miterlimit="4" stroke="#f4f4f4" stroke-width="2"><g><path d="M 10 9.998125L 10 52.998125"></path><path d="M 3.5 46.978125L 10 53.478125L 16.5 46.978125" stroke-dasharray="none"></path></g></g></g><g id="g-root-3.line_2_sy_qqxmcvb5nojr-stroke" data-item-order="-92646" transform="translate(363, 417.4609375)"><g id="3.line_2_sy_qqxmcvb5nojr-stroke" fill="none" stroke-linecap="round" stroke-linejoin="round" stroke-miterlimit="4" stroke="#f4f4f4" stroke-width="2"><g><path d="M 10 9.999062L 10 52.999062"></path><path d="M 3.5 47.039063L 10 53.539063L 16.5 47.039063" stroke-dasharray="none"></path></g></g></g><g id="g-root-3.line_3_sy_mbqlbjb5nm68-stroke" data-item-order="-92642" transform="translate(459, 406.392578125)"><g id="3.line_3_sy_mbqlbjb5nm68-stroke" fill="none" stroke-linecap="round" stroke-linejoin="round" stroke-miterlimit="4" stroke="#f4f4f4" stroke-width="2"><g><path d="M 10 9.997422L 10 52.997422"></path><path d="M 3.5 47.007422L 10 53.507422L 16.5 47.007422" stroke-dasharray="none"></path></g></g></g><g id="g-root-3.line_4_sy_mbqlbjb5nm69-stroke" data-item-order="-92638" transform="translate(435, 411.927734375)"><g id="3.line_4_sy_mbqlbjb5nm69-stroke" fill="none" stroke-linecap="round" stroke-linejoin="round" stroke-miterlimit="4" stroke="#f4f4f4" stroke-width="2"><g><path d="M 10 10.002266L 10 53.002266"></path><path d="M 3.5 46.972266L 10 53.472266L 16.5 46.972266" stroke-dasharray="none"></path></g></g></g><g id="g-root-3.line_5_sy_mbqlbjb5nm6a-stroke" data-item-order="-92634" transform="translate(411, 417.462890625)"><g id="3.line_5_sy_mbqlbjb5nm6a-stroke" fill="none" stroke-linecap="round" stroke-linejoin="round" stroke-miterlimit="4" stroke="#f4f4f4" stroke-width="2"><g><path d="M 10 9.997109L 10 52.997109"></path><path d="M 3.5 47.037109L 10 53.537109L 16.5 47.037109" stroke-dasharray="none"></path></g></g></g><g id="g-root-3.line_6_sy_mbqlbjb5nm6b-stroke" data-item-order="-92630" transform="translate(387, 422.998046875)"><g id="3.line_6_sy_mbqlbjb5nm6b-stroke" fill="none" stroke-linecap="round" stroke-linejoin="round" stroke-miterlimit="4" stroke="#f4f4f4" stroke-width="2"><g><path d="M 10 10.001953L 10 53.001953"></path><path d="M 3.5 47.001953L 10 53.501953L 16.5 47.001953" stroke-dasharray="none"></path></g></g></g><g id="g-root-3.cu_sy_dg3l2nb5nmz0-stroke" data-item-order="-92629" transform="translate(231, 345)"><g id="3.cu_sy_dg3l2nb5nmz0-stroke" fill="none" stroke-linecap="round" stroke-linejoin="round" stroke-miterlimit="4" stroke="#2c2c2c" stroke-width="2"><g><path d="M 10 40L 10 52L 166 88L 322 52L 322 40M 10 40L 165.9714 76L 322 40M 10 40L 140 10L 166 16L 192 10L 322 40"></path></g></g></g><g id="g-root-2.line_sy_dg3l2nb5nmz1-stroke" data-item-order="-92622" transform="translate(291, 328.84375)"><g id="2.line_sy_dg3l2nb5nmz1-stroke" fill="none" stroke-linecap="round" stroke-linejoin="round" stroke-miterlimit="4" stroke="#f4f4f4" stroke-width="2"><g><path d="M 10 9.99625L 10 52.99625"></path><path d="M 3.5 46.95625L 10 53.45625L 16.5 46.95625" stroke-dasharray="none"></path></g></g></g><g id="g-root-2.line_1_sy_dg3l2nb5nmz2-stroke" data-item-order="-92618" transform="translate(315, 334.3828125)"><g id="2.line_1_sy_dg3l2nb5nmz2-stroke" fill="none" stroke-linecap="round" stroke-linejoin="round" stroke-miterlimit="4" stroke="#f4f4f4" stroke-width="2"><g><path d="M 10 9.997187L 10 52.997187"></path><path d="M 3.5 47.017187L 10 53.517187L 16.5 47.017187" stroke-dasharray="none"></path></g></g></g><g id="g-root-2.line_2_sy_90a2y7b5nnrb-stroke" data-item-order="-92614" transform="translate(339, 339.921875)"><g id="2.line_2_sy_90a2y7b5nnrb-stroke" fill="none" stroke-linecap="round" stroke-linejoin="round" stroke-miterlimit="4" stroke="#f4f4f4" stroke-width="2"><g><path d="M 10 9.998125L 10 52.998125"></path><path d="M 3.5 46.978125L 10 53.478125L 16.5 46.978125" stroke-dasharray="none"></path></g></g></g><g id="g-root-2.line_3_sy_90a2y7b5nnrc-stroke" data-item-order="-92610" transform="translate(363, 345.4609375)"><g id="2.line_3_sy_90a2y7b5nnrc-stroke" fill="none" stroke-linecap="round" stroke-linejoin="round" stroke-miterlimit="4" stroke="#f4f4f4" stroke-width="2"><g><path d="M 10 9.999062L 10 52.999062"></path><path d="M 3.5 47.039063L 10 53.539063L 16.5 47.039063" stroke-dasharray="none"></path></g></g></g><g id="g-root-2.line_4_sy_90a2y7b5nnrd-stroke" data-item-order="-92606" transform="translate(483, 328.857421875)"><g id="2.line_4_sy_90a2y7b5nnrd-stroke" fill="none" stroke-linecap="round" stroke-linejoin="round" stroke-miterlimit="4" stroke="#f4f4f4" stroke-width="2"><g><path d="M 10 10.002578L 10 53.002578"></path><path d="M 3.5 47.042578L 10 53.542578L 16.5 47.042578" stroke-dasharray="none"></path></g></g></g><g id="g-root-2.line_5_sy_90a2y7b5nnre-stroke" data-item-order="-92602" transform="translate(459, 334.392578125)"><g id="2.line_5_sy_90a2y7b5nnre-stroke" fill="none" stroke-linecap="round" stroke-linejoin="round" stroke-miterlimit="4" stroke="#f4f4f4" stroke-width="2"><g><path d="M 10 9.997422L 10 52.997422"></path><path d="M 3.5 47.007422L 10 53.507422L 16.5 47.007422" stroke-dasharray="none"></path></g></g></g><g id="g-root-2.line_6_sy_90a2y7b5nnrf-stroke" data-item-order="-92598" transform="translate(435, 339.927734375)"><g id="2.line_6_sy_90a2y7b5nnrf-stroke" fill="none" stroke-linecap="round" stroke-linejoin="round" stroke-miterlimit="4" stroke="#f4f4f4" stroke-width="2"><g><path d="M 10 10.002266L 10 53.002266"></path><path d="M 3.5 46.972266L 10 53.472266L 16.5 46.972266" stroke-dasharray="none"></path></g></g></g><g id="g-root-2.line_7_sy_4kgktrb5nojo-stroke" data-item-order="-92594" transform="translate(411, 345.462890625)"><g id="2.line_7_sy_4kgktrb5nojo-stroke" fill="none" stroke-linecap="round" stroke-linejoin="round" stroke-miterlimit="4" stroke="#f4f4f4" stroke-width="2"><g><path d="M 10 9.997109L 10 52.997109"></path><path d="M 3.5 47.037109L 10 53.537109L 16.5 47.037109" stroke-dasharray="none"></path></g></g></g><g id="g-root-2.line_8_sy_4kgktrb5nojp-stroke" data-item-order="-92590" transform="translate(387, 350.998046875)"><g id="2.line_8_sy_4kgktrb5nojp-stroke" fill="none" stroke-linecap="round" stroke-linejoin="round" stroke-miterlimit="4" stroke="#f4f4f4" stroke-width="2"><g><path d="M 10 10.001953L 10 53.001953"></path><path d="M 3.5 47.001953L 10 53.501953L 16.5 47.001953" stroke-dasharray="none"></path></g></g></g><g id="g-root-2.cu_sy_4kgktrb5nojq-stroke" data-item-order="-92589" transform="translate(231, 273)"><g id="2.cu_sy_4kgktrb5nojq-stroke" fill="none" stroke-linecap="round" stroke-linejoin="round" stroke-miterlimit="4" stroke="#2c2c2c" stroke-width="2"><g><path d="M 10 40L 10 52L 166 88L 322 52L 322 40M 10 40L 165.9714 76L 322 40M 10 40L 140 10L 166 16L 192 10L 322 40"></path></g></g></g><g id="g-root-1.line_sy_4kgktrb5nojr-stroke" data-item-order="-92582" transform="translate(267, 251.3046875)"><g id="1.line_sy_4kgktrb5nojr-stroke" fill="none" stroke-linecap="round" stroke-linejoin="round" stroke-miterlimit="4" stroke="#f4f4f4" stroke-width="2"><g><path d="M 10 9.995313L 10 52.995313"></path><path d="M 3.5 46.995313L 10 53.495313L 16.5 46.995313" stroke-dasharray="none"></path></g></g></g><g id="g-root-1.line_1_sy_59jsfb5nm68-stroke" data-item-order="-92578" transform="translate(291, 256.84375)"><g id="1.line_1_sy_59jsfb5nm68-stroke" fill="none" stroke-linecap="round" stroke-linejoin="round" stroke-miterlimit="4" stroke="#f4f4f4" stroke-width="2"><g><path d="M 10 9.99625L 10 52.99625"></path><path d="M 3.5 46.95625L 10 53.45625L 16.5 46.95625" stroke-dasharray="none"></path></g></g></g><g id="g-root-1.line_2_sy_59jsfb5nm69-stroke" data-item-order="-92574" transform="translate(315, 262.3828125)"><g id="1.line_2_sy_59jsfb5nm69-stroke" fill="none" stroke-linecap="round" stroke-linejoin="round" stroke-miterlimit="4" stroke="#f4f4f4" stroke-width="2"><g><path d="M 10 9.997187L 10 52.997187"></path><path d="M 3.5 47.017187L 10 53.517187L 16.5 47.017187" stroke-dasharray="none"></path></g></g></g><g id="g-root-1.line_3_sy_59jsfb5nm6a-stroke" data-item-order="-92570" transform="translate(339, 267.921875)"><g id="1.line_3_sy_59jsfb5nm6a-stroke" fill="none" stroke-linecap="round" stroke-linejoin="round" stroke-miterlimit="4" stroke="#f4f4f4" stroke-width="2"><g><path d="M 10 9.998125L 10 52.998125"></path><path d="M 3.5 46.978125L 10 53.478125L 16.5 46.978125" stroke-dasharray="none"></path></g></g></g><g id="g-root-1.line_4_sy_59jsfb5nm6b-stroke" data-item-order="-92566" transform="translate(363, 273.4609375)"><g id="1.line_4_sy_59jsfb5nm6b-stroke" fill="none" stroke-linecap="round" stroke-linejoin="round" stroke-miterlimit="4" stroke="#f4f4f4" stroke-width="2"><g><path d="M 10 9.999062L 10 52.999062"></path><path d="M 3.5 47.039063L 10 53.539063L 16.5 47.039063" stroke-dasharray="none"></path></g></g></g><g id="g-root-1.line_5_sy_1qaqlinb5nmrw-stroke" data-item-order="-92562" transform="translate(507, 251.322265625)"><g id="1.line_5_sy_1qaqlinb5nmrw-stroke" fill="none" stroke-linecap="round" stroke-linejoin="round" stroke-miterlimit="4" stroke="#f4f4f4" stroke-width="2"><g><path d="M 10 9.997734L 10 52.997734"></path><path d="M 3.5 46.977734L 10 53.477734L 16.5 46.977734" stroke-dasharray="none"></path></g></g></g><g id="g-root-1.line_6_sy_1qaqlinb5nmrx-stroke" data-item-order="-92558" transform="translate(483, 256.857421875)"><g id="1.line_6_sy_1qaqlinb5nmrx-stroke" fill="none" stroke-linecap="round" stroke-linejoin="round" stroke-miterlimit="4" stroke="#f4f4f4" stroke-width="2"><g><path d="M 10 10.002578L 10 53.002578"></path><path d="M 3.5 47.042578L 10 53.542578L 16.5 47.042578" stroke-dasharray="none"></path></g></g></g><g id="g-root-1.line_7_sy_1qaqlinb5nmry-stroke" data-item-order="-92554" transform="translate(459, 262.392578125)"><g id="1.line_7_sy_1qaqlinb5nmry-stroke" fill="none" stroke-linecap="round" stroke-linejoin="round" stroke-miterlimit="4" stroke="#f4f4f4" stroke-width="2"><g><path d="M 10 9.997422L 10 52.997422"></path><path d="M 3.5 47.007422L 10 53.507422L 16.5 47.007422" stroke-dasharray="none"></path></g></g></g><g id="g-root-1.line_8_sy_1qaqlinb5nmrz-stroke" data-item-order="-92550" transform="translate(435, 267.927734375)"><g id="1.line_8_sy_1qaqlinb5nmrz-stroke" fill="none" stroke-linecap="round" stroke-linejoin="round" stroke-miterlimit="4" stroke="#f4f4f4" stroke-width="2"><g><path d="M 10 10.002266L 10 53.002266"></path><path d="M 3.5 46.972266L 10 53.472266L 16.5 46.972266" stroke-dasharray="none"></path></g></g></g><g id="g-root-1.line_9_sy_1lux3e7b5nnk8-stroke" data-item-order="-92546" transform="translate(411, 273.462890625)"><g id="1.line_9_sy_1lux3e7b5nnk8-stroke" fill="none" stroke-linecap="round" stroke-linejoin="round" stroke-miterlimit="4" stroke="#f4f4f4" stroke-width="2"><g><path d="M 10 9.997109L 10 52.997109"></path><path d="M 3.5 47.037109L 10 53.537109L 16.5 47.037109" stroke-dasharray="none"></path></g></g></g><g id="g-root-1.line_10_sy_1lux3e7b5nnk9-stroke" data-item-order="-92542" transform="translate(387, 278.998046875)"><g id="1.line_10_sy_1lux3e7b5nnk9-stroke" fill="none" stroke-linecap="round" stroke-linejoin="round" stroke-miterlimit="4" stroke="#f4f4f4" stroke-width="2"><g><path d="M 10 10.001953L 10 53.001953"></path><path d="M 3.5 47.001953L 10 53.501953L 16.5 47.001953" stroke-dasharray="none"></path></g></g></g><g id="g-root-1.cu_sy_1lux3e7b5nnka-stroke" data-item-order="-92541" transform="translate(231, 195)"><g id="1.cu_sy_1lux3e7b5nnka-stroke" fill="none" stroke-linecap="round" stroke-linejoin="round" stroke-miterlimit="4" stroke="#2c2c2c" stroke-width="2"><g><path d="M 10 46L 10 58L 166 94L 322 58L 322 46M 10 46L 166 10L 322 46M 10 46L 166 82L 322 46"></path></g></g></g><g id="g-root-0.line_sy_1hf3l9rb5nocj-stroke" data-item-order="-92534" transform="translate(243, 171.00018310546875)"><g id="0.line_sy_1hf3l9rb5nocj-stroke" fill="none" stroke-linecap="round" stroke-linejoin="round" stroke-miterlimit="4" stroke="#f4f4f4" stroke-width="2"><g><path d="M 10 9.999817L 10 55.769817"></path><path d="M 3.5 49.799817L 10 56.299817L 16.5 49.799817" stroke-dasharray="none"></path></g></g></g><g id="g-root-0.line_1_sy_1hf3l9rb5nock-stroke" data-item-order="-92530" transform="translate(459, 183)"><g id="0.line_1_sy_1hf3l9rb5nock-stroke" fill="none" stroke-linecap="round" stroke-linejoin="round" stroke-miterlimit="4" stroke="#f4f4f4" stroke-width="2"><g><path d="M 10 10L 10 60.39"></path><path d="M 3.5 54.4L 10 60.9L 16.5 54.4" stroke-dasharray="none"></path></g></g></g><g id="g-root-0.line_2_sy_1hf3l9rb5nocl-stroke" data-item-order="-92526" transform="translate(411, 183)"><g id="0.line_2_sy_1hf3l9rb5nocl-stroke" fill="none" stroke-linecap="round" stroke-linejoin="round" stroke-miterlimit="4" stroke="#f4f4f4" stroke-width="2"><g><path d="M 10 10L 10 71.46"></path><path d="M 3.5 65.5L 10 72L 16.5 65.5" stroke-dasharray="none"></path></g></g></g><g id="g-root-0.line_3_sy_18k323zb5nlzi-stroke" data-item-order="-92522" transform="translate(315, 183)"><g id="0.line_3_sy_18k323zb5nlzi-stroke" fill="none" stroke-linecap="round" stroke-linejoin="round" stroke-miterlimit="4" stroke="#f4f4f4" stroke-width="2"><g><path d="M 10 10L 10 60.38"></path><path d="M 3.5 54.4L 10 60.9L 16.5 54.4" stroke-dasharray="none"></path></g></g></g><g id="g-root-0.line_4_sy_18k323zb5nlzj-stroke" data-item-order="-92518" transform="translate(435, 171)"><g id="0.line_4_sy_18k323zb5nlzj-stroke" fill="none" stroke-linecap="round" stroke-linejoin="round" stroke-miterlimit="4" stroke="#f4f4f4" stroke-width="2"><g><path d="M 10 10L 10 77.93"></path><path d="M 3.5 71.9L 10 78.4L 16.5 71.9" stroke-dasharray="none"></path></g></g></g><g id="g-root-0.line_5_sy_1czwk8fb5nlz4-stroke" data-item-order="-92514" transform="translate(267, 183)"><g id="0.line_5_sy_1czwk8fb5nlz4-stroke" fill="none" stroke-linecap="round" stroke-linejoin="round" stroke-miterlimit="4" stroke="#f4f4f4" stroke-width="2"><g><path d="M 10 10L 10 49.31"></path><path d="M 3.5 43.3L 10 49.8L 16.5 43.3" stroke-dasharray="none"></path></g></g></g><g id="g-root-0.line_6_sy_1czwk8fb5nlz5-stroke" data-item-order="-92510" transform="translate(531, 171)"><g id="0.line_6_sy_1czwk8fb5nlz5-stroke" fill="none" stroke-linecap="round" stroke-linejoin="round" stroke-miterlimit="4" stroke="#f4f4f4" stroke-width="2"><g><path d="M 10 10L 10 55.79"></path><path d="M 3.5 49.8L 10 56.3L 16.5 49.8" stroke-dasharray="none"></path></g></g></g><g id="g-root-0.line_7_sy_1449jzjb5nmru-stroke" data-item-order="-92506" transform="translate(483, 171)"><g id="0.line_7_sy_1449jzjb5nmru-stroke" fill="none" stroke-linecap="round" stroke-linejoin="round" stroke-miterlimit="4" stroke="#f4f4f4" stroke-width="2"><g><path d="M 10 10L 10 66.86"></path><path d="M 3.5 60.9L 10 67.4L 16.5 60.9" stroke-dasharray="none"></path></g></g></g><g id="g-root-0.line_8_sy_1449jzjb5nmrv-stroke" data-item-order="-92502" transform="translate(291, 171)"><g id="0.line_8_sy_1449jzjb5nmrv-stroke" fill="none" stroke-linecap="round" stroke-linejoin="round" stroke-miterlimit="4" stroke="#f4f4f4" stroke-width="2"><g><path d="M 10 10L 10 66.84"></path><path d="M 3.5 60.8L 10 67.3L 16.5 60.8" stroke-dasharray="none"></path></g></g></g><g id="g-root-0.line_9_sy_1449jzjb5nmrw-stroke" data-item-order="-92498" transform="translate(363, 183)"><g id="0.line_9_sy_1449jzjb5nmrw-stroke" fill="none" stroke-linecap="round" stroke-linejoin="round" stroke-miterlimit="4" stroke="#f4f4f4" stroke-width="2"><g><path d="M 10 10L 10 71.46"></path><path d="M 3.5 65.5L 10 72L 16.5 65.5" stroke-dasharray="none"></path></g></g></g><g id="g-root-0.line_10_sy_1449jzjb5nmrx-stroke" data-item-order="-92494" transform="translate(339, 171)"><g id="0.line_10_sy_1449jzjb5nmrx-stroke" fill="none" stroke-linecap="round" stroke-linejoin="round" stroke-miterlimit="4" stroke="#f4f4f4" stroke-width="2"><g><path d="M 10 10L 10 77.92"></path><path d="M 3.5 71.9L 10 78.4L 16.5 71.9" stroke-dasharray="none"></path></g></g></g><g id="g-root-0.line_11_sy_zog1v3b5nnk6-stroke" data-item-order="-92490" transform="translate(507, 183)"><g id="0.line_11_sy_zog1v3b5nnk6-stroke" fill="none" stroke-linecap="round" stroke-linejoin="round" stroke-miterlimit="4" stroke="#f4f4f4" stroke-width="2"><g><path d="M 10 10L 10 49.32"></path><path d="M 3.5 43.3L 10 49.8L 16.5 43.3" stroke-dasharray="none"></path></g></g></g><g id="g-root-0.line_12_sy_zog1v3b5nnk7-stroke" data-item-order="-92486" transform="translate(387, 171)"><g id="0.line_12_sy_zog1v3b5nnk7-stroke" fill="none" stroke-linecap="round" stroke-linejoin="round" stroke-miterlimit="4" stroke="#f4f4f4" stroke-width="2"><g><path d="M 10 10L 10 89"></path><path d="M 3.5 83L 10 89.5L 16.5 83" stroke-dasharray="none"></path></g></g></g><g id="g-root-tx_simplify_925i7jb5nnkd-stroke" data-item-order="0" transform="translate(213, 39)"></g><g id="g-root-tx_aicomple_hxsigfb5nmrn-stroke" data-item-order="0" transform="translate(321, 135)"></g><g id="g-root-tx_simplifi_hxsigfb5nmrm-stroke" data-item-order="0" transform="translate(15, 225)"></g><g id="g-root-tx_integrat_mdm0kvb5nlzd-stroke" data-item-order="0" transform="translate(567, 297)"></g><g id="g-root-tx_accessib_v8mjqnb5nocg-stroke" data-item-order="0" transform="translate(75, 369)"></g><g id="g-root-tx_empowere_hxsigfb5nmro-stroke" data-item-order="0" transform="translate(303, 483)"></g></g></g></svg>